<svg width="77" height="77" viewBox="0 0 77 77" fill="none" xmlns="http://www.w3.org/2000/svg">
<rect x="0.147278" y="0.147217" width="76.6685" height="76.6685" rx="15.2132" fill="white"/>
<g clip-path="url(#clip0_64_1028)">
<path d="M27.5283 14.8446C28.3665 14.6865 29.2125 14.726 30.0507 14.6232C40.5513 14.6232 51.0519 14.5837 61.5446 14.6074C61.5841 17.9917 61.5208 21.368 61.5287 24.7522C61.5525 24.9894 61.4892 25.2187 61.4734 25.448C61.4497 27.1481 61.4497 30.5402 61.4497 30.5402C61.4497 30.5402 61.0939 30.6351 60.912 30.6272C54.1989 30.6351 47.4858 30.6272 40.7806 30.6193C40.5434 30.5956 40.314 30.5481 40.0847 30.556C36.661 30.556 33.2372 30.5323 29.8214 30.5323C29.8372 35.8696 29.8451 41.2148 29.8451 46.552C29.9241 46.726 30.0665 46.6311 30.2088 46.5995C30.1693 45.9906 30.2958 45.3897 30.2879 44.7809C30.4855 43.3813 30.7149 41.9659 31.2763 40.6613C32.2093 38.1468 33.8698 35.917 35.9572 34.2407C37.6177 32.8965 39.5866 31.9635 41.6424 31.41C42.3462 31.2835 43.0341 31.1016 43.7536 31.0542C44.2676 30.9435 44.7974 31.0225 45.3113 30.9277C45.7699 30.9039 46.2285 31.0146 46.6872 30.983C48.0551 31.1174 49.4309 31.3467 50.7356 31.8211C51.5184 32.1137 52.317 32.3984 53.0286 32.8253C53.8826 33.2602 54.7128 33.7821 55.4482 34.3989C56.1124 34.9207 56.7608 35.4584 57.2906 36.1226C58.1603 36.9924 58.8324 38.0282 59.4571 39.0799C59.8129 39.8231 60.232 40.5427 60.4692 41.3492C60.7222 42.0292 60.9278 42.7171 61.078 43.4287C61.1966 44.1799 61.2757 44.9311 61.3706 45.6823C61.3943 46.3465 61.3469 47.0107 61.4418 47.6749C61.4497 52.427 61.4655 57.1713 61.4655 61.9155C61.2994 61.9788 61.1334 62.0341 60.9594 62.0736C59.8445 62.1211 58.7138 62.042 57.591 62.1606C56.7766 62.1448 55.9622 62.2239 55.1477 62.129C54.1989 62.2081 53.2263 62.1606 52.2696 62.1764C51.9216 62.1923 51.5816 62.0895 51.2337 62.1132C49.4784 62.1132 47.723 62.0895 45.9676 62.0895C45.9123 61.9709 45.8806 61.8364 45.8806 61.702C45.8806 59.7252 45.8806 57.7485 45.8727 55.7638C45.8727 55.5582 45.8174 55.3605 45.8095 55.1629C45.8095 52.3005 45.8095 49.4302 45.8016 46.5679C45.7067 46.5679 45.5248 46.5679 45.4378 46.5679C45.4695 47.1767 45.3509 47.7697 45.343 48.3786C45.3113 48.8056 45.1848 49.2246 45.1611 49.6595C44.9871 50.7902 44.5918 51.8814 44.1885 52.9489C43.6746 54.0638 43.1052 55.1629 42.3541 56.1354C41.1364 57.7485 39.6182 59.148 37.8629 60.1522C37.1038 60.5397 36.3605 60.9667 35.5461 61.2276C34.4549 61.6467 33.3084 61.9076 32.146 62.0025C31.8298 61.9946 31.5214 62.1132 31.1972 62.0974C30.5014 62.0736 29.7897 62.1527 29.0939 62.0104C28.5404 62.0262 28.0027 61.8681 27.4571 61.8048C24.7766 61.2434 22.2385 59.9625 20.2063 58.128C18.0082 56.175 16.3635 53.621 15.4937 50.814C15.217 49.7149 14.9402 48.6 14.8533 47.4693C14.8691 47.1214 14.7663 46.7893 14.7742 46.4413C14.7742 45.9511 14.7742 45.453 14.7505 44.9627C14.6714 44.5674 14.7109 44.1562 14.703 43.7529C14.6951 40.9617 14.6872 38.1705 14.6793 35.3793C14.6872 35.1184 14.6002 34.8654 14.616 34.6044C14.6239 32.944 14.5923 31.2914 14.6081 29.6309C14.6556 29.283 14.6951 28.943 14.6872 28.5872C14.8216 27.3062 15.1379 26.0569 15.5491 24.8313C15.7547 24.2224 16.0551 23.661 16.3002 23.068C17.771 20.1345 20.1905 17.6675 23.1478 16.2126C23.8357 15.9042 24.5078 15.5563 25.2352 15.3586C25.9943 15.1767 26.7455 14.9158 27.5283 14.8446Z" fill="#346256"/>
</g>
<defs>
<clipPath id="clip0_64_1028">
<rect width="46.9681" height="47.5769" fill="white" transform="translate(14.5999 14.5999)"/>
</clipPath>
</defs>
</svg>
