<svg width="48" height="48" viewBox="0 0 48 48" fill="none" xmlns="http://www.w3.org/2000/svg">
<circle cx="24" cy="24" r="24" fill="#F9C23C"/>
<circle cx="24.3182" cy="24.3182" r="20.3182" fill="#E5A33D"/>
<path d="M19.0177 13.2031C19.4021 13.1306 19.7901 13.1487 20.1744 13.1016C24.9897 13.1016 29.8051 13.0835 34.6167 13.0944C34.6349 14.6463 34.6059 16.1946 34.6095 17.7465C34.6204 17.8553 34.5914 17.9604 34.5841 18.0656C34.5732 18.8452 34.5732 20.4007 34.5732 20.4007C34.5732 20.4007 34.4101 20.4442 34.3267 20.4406C31.2482 20.4442 28.1697 20.4406 25.0949 20.437C24.9861 20.4261 24.881 20.4043 24.7758 20.408C23.2058 20.408 21.6357 20.3971 20.0693 20.3971C20.0765 22.8446 20.0802 25.2958 20.0802 27.7433C20.1164 27.8231 20.1817 27.7796 20.247 27.7651C20.2288 27.4859 20.2868 27.2103 20.2832 26.9311C20.3739 26.2893 20.479 25.6403 20.7365 25.042C21.1643 23.8889 21.9258 22.8664 22.883 22.0977C23.6445 21.4813 24.5474 21.0534 25.4901 20.7996C25.8128 20.7416 26.1283 20.6582 26.4583 20.6364C26.694 20.5856 26.9369 20.6219 27.1726 20.5784C27.3829 20.5675 27.5932 20.6183 27.8035 20.6038C28.4308 20.6654 29.0617 20.7706 29.66 20.9881C30.019 21.1223 30.3852 21.2528 30.7116 21.4486C31.1032 21.6481 31.4839 21.8874 31.8211 22.1702C32.1257 22.4095 32.423 22.6561 32.666 22.9607C33.0648 23.3595 33.373 23.8345 33.6595 24.3168C33.8227 24.6576 34.0148 24.9876 34.1236 25.3574C34.2396 25.6693 34.3339 25.9847 34.4028 26.3111C34.4572 26.6556 34.4935 27 34.537 27.3445C34.5478 27.6491 34.5261 27.9537 34.5696 28.2582C34.5732 30.4375 34.5805 32.6131 34.5805 34.7886C34.5043 34.8177 34.4282 34.843 34.3484 34.8612C33.8372 34.8829 33.3186 34.8467 32.8037 34.901C32.4303 34.8938 32.0568 34.9301 31.6833 34.8865C31.2482 34.9228 30.8022 34.901 30.3635 34.9083C30.2039 34.9156 30.048 34.8684 29.8885 34.8793C29.0835 34.8793 28.2785 34.8684 27.4735 34.8684C27.4482 34.814 27.4337 34.7524 27.4337 34.6907C27.4337 33.7842 27.4337 32.8777 27.43 31.9676C27.43 31.8733 27.4047 31.7827 27.401 31.6921C27.401 30.3794 27.401 29.0632 27.3974 27.7506C27.3539 27.7506 27.2705 27.7506 27.2306 27.7506C27.2451 28.0298 27.1907 28.3018 27.1871 28.581C27.1726 28.7768 27.1146 28.9689 27.1037 29.1684C27.0239 29.6869 26.8426 30.1873 26.6577 30.6768C26.422 31.188 26.1609 31.692 25.8165 32.138C25.2581 32.8777 24.5619 33.5195 23.7569 33.98C23.4088 34.1577 23.068 34.3535 22.6945 34.4732C22.1941 34.6654 21.6683 34.785 21.1353 34.8285C20.9903 34.8249 20.8489 34.8793 20.7002 34.872C20.3811 34.8612 20.0548 34.8974 19.7357 34.8322C19.4819 34.8394 19.2353 34.7669 18.9851 34.7379C17.7559 34.4804 16.592 33.893 15.6601 33.0518C14.6521 32.1562 13.8979 30.985 13.499 29.6978C13.3721 29.1937 13.2452 28.6825 13.2053 28.164C13.2125 28.0044 13.1654 27.8521 13.169 27.6926C13.169 27.4678 13.169 27.2393 13.1581 27.0145C13.1219 26.8332 13.14 26.6447 13.1364 26.4597C13.1328 25.1798 13.1291 23.8998 13.1255 22.6198C13.1291 22.5002 13.0893 22.3841 13.0965 22.2645C13.1001 21.503 13.0856 20.7452 13.0929 19.9837C13.1146 19.8242 13.1328 19.6683 13.1291 19.5051C13.1908 18.9177 13.3358 18.3448 13.5244 17.7828C13.6186 17.5036 13.7564 17.2461 13.8688 16.9742C14.5433 15.6289 15.6528 14.4976 17.0089 13.8304C17.3244 13.689 17.6326 13.5295 17.9662 13.4388C18.3143 13.3554 18.6588 13.2358 19.0177 13.2031Z" fill="#F9C23C"/>
</svg>
