<svg width="33" height="32" viewBox="0 0 33 32" fill="none" xmlns="http://www.w3.org/2000/svg">
<path d="M21.3 16.0001C21.3 17.2732 20.7943 18.4941 19.8941 19.3943C18.994 20.2944 17.7731 20.8001 16.5 20.8001C15.227 20.8001 14.0061 20.2944 13.1059 19.3943C12.2057 18.4941 11.7 17.2732 11.7 16.0001C11.7011 15.726 11.7272 15.4593 11.7784 15.2001H10.1V21.5953C10.1 22.0401 10.46 22.4001 10.9048 22.4001H22.0968C22.31 22.3997 22.5143 22.3147 22.6649 22.1639C22.8154 22.013 22.9 21.8085 22.9 21.5953V15.2001H21.2216C21.2728 15.4593 21.2989 15.726 21.3 16.0001ZM16.5 19.2001C16.9204 19.2 17.3365 19.1171 17.7248 18.9562C18.1131 18.7952 18.4659 18.5594 18.7631 18.2621C19.0602 17.9648 19.2959 17.6119 19.4567 17.2235C19.6174 16.8351 19.7001 16.4189 19.7 15.9985C19.6999 15.5782 19.617 15.162 19.4561 14.7737C19.2951 14.3854 19.0593 14.0326 18.762 13.7355C18.4647 13.4383 18.1117 13.2026 17.7234 13.0419C17.335 12.8811 16.9187 12.7984 16.4984 12.7985C15.6495 12.7987 14.8355 13.1362 14.2353 13.7366C13.6352 14.337 13.2982 15.1512 13.2984 16.0001C13.2986 16.849 13.6361 17.6631 14.2365 18.2632C14.8369 18.8633 15.6511 19.2003 16.5 19.2001ZM20.34 12.6401H22.2584C22.3216 12.6403 22.3842 12.6281 22.4426 12.6041C22.501 12.58 22.5541 12.5447 22.5989 12.5001C22.6436 12.4555 22.6791 12.4025 22.7033 12.3442C22.7275 12.2859 22.74 12.2233 22.74 12.1601V10.2417C22.7402 10.1784 22.7279 10.1157 22.7038 10.0572C22.6797 9.99866 22.6442 9.94549 22.5994 9.90072C22.5547 9.85596 22.5015 9.82049 22.443 9.79637C22.3844 9.77224 22.3217 9.75992 22.2584 9.76014H20.34C20.2767 9.75992 20.214 9.77224 20.1555 9.79637C20.0969 9.82049 20.0438 9.85596 19.999 9.90072C19.9542 9.94549 19.9188 9.99866 19.8946 10.0572C19.8705 10.1157 19.8582 10.1784 19.8584 10.2417V12.1601C19.86 12.4241 20.076 12.6401 20.34 12.6401ZM16.5 0.640137C12.4263 0.640137 8.51941 2.25842 5.63885 5.13898C2.7583 8.01954 1.14001 11.9264 1.14001 16.0001C1.14001 20.0739 2.7583 23.9807 5.63885 26.8613C8.51941 29.7419 12.4263 31.3601 16.5 31.3601C18.5171 31.3601 20.5145 30.9628 22.378 30.1909C24.2416 29.419 25.9349 28.2876 27.3612 26.8613C28.7875 25.435 29.9189 23.7417 30.6908 21.8782C31.4627 20.0146 31.86 18.0172 31.86 16.0001C31.86 13.983 31.4627 11.9857 30.6908 10.1221C29.9189 8.25856 28.7875 6.56528 27.3612 5.13898C25.9349 3.71267 24.2416 2.58126 22.378 1.80935C20.5145 1.03743 18.5171 0.640137 16.5 0.640137ZM24.5 22.2225C24.5 23.2001 23.7 24.0001 22.7224 24.0001H10.2776C9.30001 24.0001 8.50001 23.2001 8.50001 22.2225V9.77774C8.50001 8.80014 9.30001 8.00014 10.2776 8.00014H22.7224C23.7 8.00014 24.5 8.80014 24.5 9.77774V22.2225Z" fill="white"/>
</svg>
