<svg width="185" height="35" viewBox="0 0 185 35" fill="none" xmlns="http://www.w3.org/2000/svg">
<g clip-path="url(#clip0_24_51)">
<path d="M9.28992 0.175924C9.89218 0.0622915 10.5001 0.0906997 11.1024 0.0168382C18.6476 0.0168382 26.1928 -0.01157 33.7324 0.00547493C33.7608 2.43722 33.7153 4.86329 33.721 7.29503C33.7381 7.46548 33.6926 7.63025 33.6813 7.79502C33.6642 9.01657 33.6642 11.454 33.6642 11.454C33.6642 11.454 33.4085 11.5222 33.2779 11.5165C28.4541 11.5222 23.6304 11.5165 18.8124 11.5108C18.6419 11.4938 18.4772 11.4597 18.3124 11.4654C15.8522 11.4654 13.3921 11.4483 10.9376 11.4483C10.949 15.2834 10.9546 19.1242 10.9546 22.9593C11.0115 23.0843 11.1137 23.0162 11.216 22.9934C11.1876 22.556 11.2785 22.1241 11.2728 21.6867C11.4149 20.681 11.5796 19.664 11.983 18.7265C12.6535 16.9198 13.8466 15.3175 15.3466 14.113C16.5397 13.1471 17.9544 12.4767 19.4317 12.079C19.9373 11.9881 20.4316 11.8574 20.9487 11.8233C21.318 11.7438 21.6986 11.8006 22.068 11.7324C22.3975 11.7154 22.727 11.7949 23.0566 11.7722C24.0395 11.8688 25.0281 12.0335 25.9656 12.3744C26.5281 12.5847 27.1019 12.7892 27.6132 13.096C28.2269 13.4085 28.8234 13.7835 29.3518 14.2266C29.8291 14.6016 30.295 14.988 30.6757 15.4652C31.3006 16.0902 31.7836 16.8345 32.2324 17.5902C32.4881 18.1243 32.7892 18.6413 32.9597 19.2208C33.1415 19.7094 33.2892 20.2037 33.3972 20.7151C33.4824 21.2549 33.5392 21.7946 33.6074 22.3344C33.6244 22.8116 33.5903 23.2889 33.6585 23.7661C33.6642 27.1808 33.6756 30.5898 33.6756 33.9988C33.5563 34.0443 33.4369 34.084 33.3119 34.1124C32.5108 34.1465 31.6984 34.0897 30.8916 34.1749C30.3063 34.1636 29.7211 34.2204 29.1359 34.1522C28.4541 34.209 27.7553 34.1749 27.0678 34.1863C26.8178 34.1977 26.5735 34.1238 26.3235 34.1408C25.0622 34.1408 23.8009 34.1238 22.5395 34.1238C22.4998 34.0386 22.477 33.942 22.477 33.8454C22.477 32.425 22.477 31.0046 22.4714 29.5785C22.4714 29.4307 22.4316 29.2887 22.4259 29.1467C22.4259 27.0899 22.4259 25.0275 22.4202 22.9707C22.352 22.9707 22.2214 22.9707 22.1589 22.9707C22.1816 23.4082 22.0964 23.8343 22.0907 24.2718C22.068 24.5786 21.977 24.8797 21.96 25.1922C21.835 26.0047 21.5509 26.7888 21.2612 27.5558C20.8919 28.3569 20.4828 29.1467 19.943 29.8455C19.068 31.0046 17.9772 32.0102 16.7158 32.7318C16.1704 33.0102 15.6363 33.317 15.0511 33.5045C14.267 33.8056 13.4432 33.9931 12.608 34.0613C12.3807 34.0556 12.1592 34.1408 11.9262 34.1295C11.4262 34.1124 10.9149 34.1692 10.4149 34.067C10.0172 34.0783 9.63082 33.9647 9.23879 33.9192C7.31271 33.5159 5.4889 32.5954 4.02871 31.2773C2.44922 29.8739 1.26743 28.0387 0.64245 26.0218C0.443592 25.232 0.244735 24.4309 0.182236 23.6184C0.1936 23.3684 0.119738 23.1298 0.12542 22.8798C0.12542 22.5275 0.12542 22.1696 0.108375 21.8173C0.0515585 21.5333 0.0799667 21.2378 0.0742851 20.948C0.0686034 18.9424 0.0629218 16.9368 0.0572401 14.9312C0.0629218 14.7437 0.000423612 14.5619 0.0117869 14.3744C0.0174686 13.1812 -0.00525804 11.9938 0.00610526 10.8006C0.0401952 10.5506 0.0686034 10.3063 0.0629218 10.0506C0.15951 9.13021 0.386776 8.23251 0.682222 7.35185C0.829945 6.91436 1.04585 6.51097 1.22198 6.08484C2.27877 3.97695 4.01735 2.20427 6.14229 1.15885C6.63659 0.937266 7.11953 0.687273 7.64224 0.545232C8.18768 0.414554 8.72744 0.227059 9.28992 0.175924Z" fill="#346256"/>
</g>
<path d="M54.3989 27.4448C52.9177 27.4448 51.5865 27.2057 50.4053 26.7276C49.2241 26.2401 48.2163 25.537 47.3819 24.6183C46.5476 23.6996 45.9054 22.5887 45.4554 21.2856C45.0148 19.9731 44.7945 18.5013 44.7945 16.8701V16.856C44.7945 14.6999 45.1836 12.8484 45.9617 11.3015C46.7398 9.74532 47.8413 8.55004 49.2662 7.71569C50.7006 6.87197 52.388 6.4501 54.3286 6.4501C55.9317 6.4501 57.3379 6.73603 58.5472 7.30789C59.7566 7.87037 60.7409 8.64379 61.5003 9.62814C62.269 10.6031 62.7799 11.714 63.033 12.9608L63.0893 13.1999H59.4191L59.3628 13.0452C58.9785 11.9578 58.355 11.1093 57.4926 10.5C56.6395 9.89063 55.5895 9.58595 54.3427 9.58595C53.1239 9.58595 52.0787 9.87188 51.2068 10.4437C50.335 11.0156 49.6647 11.8453 49.1959 12.9327C48.7272 14.0108 48.4928 15.3092 48.4928 16.8279V16.842C48.4928 18.0045 48.6288 19.0497 48.9006 19.9778C49.1725 20.8966 49.5662 21.6793 50.0819 22.3262C50.6068 22.9637 51.2349 23.4559 51.9662 23.8027C52.6974 24.1402 53.5224 24.309 54.4411 24.309C55.4629 24.309 56.3629 24.1121 57.141 23.7183C57.9285 23.3246 58.5425 22.7715 58.9832 22.059C59.4331 21.3465 59.6675 20.5169 59.6863 19.57L59.7003 19.2607H54.6661V16.4342H63.244V18.6279C63.244 19.9966 63.0424 21.2247 62.6393 22.3121C62.2456 23.3996 61.6643 24.3277 60.8956 25.0964C60.1362 25.8558 59.2081 26.437 58.1113 26.8401C57.0238 27.2432 55.7864 27.4448 54.3989 27.4448ZM66.3095 27.0932V12.1874H69.7969V14.7608H69.8813C70.1063 13.8608 70.5141 13.1577 71.1047 12.6515C71.7047 12.1359 72.4359 11.8781 73.2984 11.8781C73.514 11.8781 73.7202 11.8921 73.9171 11.9203C74.114 11.9484 74.278 11.9812 74.4093 12.0187V15.1827C74.2686 15.1264 74.0671 15.0795 73.8046 15.042C73.5515 15.0045 73.2749 14.9858 72.9749 14.9858C72.3187 14.9858 71.7515 15.1217 71.2734 15.3936C70.7953 15.6561 70.4297 16.0451 70.1766 16.5607C69.9235 17.0764 69.7969 17.7045 69.7969 18.4451V27.0932H66.3095ZM82.6496 27.3886C81.1591 27.3886 79.8747 27.0745 78.7966 26.4464C77.7279 25.8183 76.9076 24.9277 76.3358 23.7746C75.7639 22.6215 75.478 21.2575 75.478 19.6825V19.6685C75.478 18.1029 75.7639 16.7389 76.3358 15.5764C76.917 14.4046 77.7279 13.4952 78.7685 12.8484C79.8185 12.2015 81.0559 11.8781 82.4809 11.8781C83.8965 11.8781 85.1199 12.1921 86.1511 12.8202C87.1917 13.439 87.9886 14.3108 88.5417 15.4358C89.1041 16.5607 89.3854 17.8732 89.3854 19.3732V20.4981H77.2076V18.1638H87.712L86.0245 20.3434V18.9935C86.0245 18.0185 85.8746 17.2076 85.5746 16.5607C85.2746 15.9139 84.8621 15.4311 84.3371 15.1123C83.8121 14.7842 83.2074 14.6202 82.5231 14.6202C81.8294 14.6202 81.2106 14.7889 80.6669 15.1264C80.1325 15.4545 79.7107 15.9467 79.4013 16.6029C79.1013 17.2592 78.9513 18.056 78.9513 18.9935V20.3434C78.9513 21.2528 79.1013 22.0309 79.4013 22.6778C79.7107 23.3152 80.1466 23.8074 80.7091 24.1543C81.2716 24.4918 81.9419 24.6605 82.72 24.6605C83.3012 24.6605 83.8121 24.5714 84.2527 24.3933C84.6933 24.2058 85.0543 23.9668 85.3355 23.6762C85.6261 23.3855 85.8277 23.0715 85.9402 22.734L85.9683 22.6356H89.2307L89.2026 22.7902C89.0807 23.3621 88.8557 23.9246 88.5276 24.4777C88.1995 25.0214 87.7589 25.5136 87.2058 25.9542C86.6527 26.3948 85.9964 26.7464 85.2371 27.0089C84.4777 27.262 83.6152 27.3886 82.6496 27.3886ZM98.6242 27.3886C97.1336 27.3886 95.8493 27.0745 94.7712 26.4464C93.7024 25.8183 92.8822 24.9277 92.3103 23.7746C91.7384 22.6215 91.4525 21.2575 91.4525 19.6825V19.6685C91.4525 18.1029 91.7384 16.7389 92.3103 15.5764C92.8915 14.4046 93.7024 13.4952 94.743 12.8484C95.793 12.2015 97.0305 11.8781 98.4554 11.8781C99.871 11.8781 101.094 12.1921 102.126 12.8202C103.166 13.439 103.963 14.3108 104.516 15.4358C105.079 16.5607 105.36 17.8732 105.36 19.3732V20.4981H93.1822V18.1638H103.687L101.999 20.3434V18.9935C101.999 18.0185 101.849 17.2076 101.549 16.5607C101.249 15.9139 100.837 15.4311 100.312 15.1123C99.7866 14.7842 99.182 14.6202 98.4976 14.6202C97.8039 14.6202 97.1852 14.7889 96.6414 15.1264C96.1071 15.4545 95.6852 15.9467 95.3758 16.6029C95.0758 17.2592 94.9259 18.056 94.9259 18.9935V20.3434C94.9259 21.2528 95.0758 22.0309 95.3758 22.6778C95.6852 23.3152 96.1211 23.8074 96.6836 24.1543C97.2461 24.4918 97.9164 24.6605 98.6945 24.6605C99.2757 24.6605 99.7866 24.5714 100.227 24.3933C100.668 24.2058 101.029 23.9668 101.31 23.6762C101.601 23.3855 101.802 23.0715 101.915 22.734L101.943 22.6356H105.205L105.177 22.7902C105.055 23.3621 104.83 23.9246 104.502 24.4777C104.174 25.0214 103.733 25.5136 103.18 25.9542C102.627 26.3948 101.971 26.7464 101.212 27.0089C100.452 27.262 99.5898 27.3886 98.6242 27.3886ZM108.046 27.0932V12.1874H111.533V14.5217H111.618C112.002 13.7155 112.574 13.0733 113.333 12.5952C114.102 12.1171 115.049 11.8781 116.174 11.8781C117.814 11.8781 119.08 12.3749 119.97 13.3687C120.87 14.3624 121.32 15.7217 121.32 17.4467V27.0932H117.819V18.1498C117.819 17.0904 117.57 16.2748 117.074 15.703C116.577 15.1217 115.831 14.8311 114.838 14.8311C114.172 14.8311 113.591 14.9858 113.094 15.2952C112.597 15.5951 112.213 16.017 111.941 16.5607C111.669 17.0951 111.533 17.7232 111.533 18.4451V27.0932H108.046ZM124.934 27.0932V6.80166H137.871V9.85313H128.562V15.8576H137.07V18.8107H128.562V27.0932H124.934ZM140.712 27.0932V6.80166H144.213V27.0932H140.712ZM154.24 27.3886C152.777 27.3886 151.507 27.0792 150.429 26.4605C149.351 25.8323 148.512 24.9417 147.912 23.7887C147.321 22.6262 147.026 21.2434 147.026 19.6403V19.6122C147.026 18.0185 147.326 16.6451 147.926 15.492C148.526 14.3296 149.365 13.439 150.443 12.8202C151.521 12.1921 152.782 11.8781 154.226 11.8781C155.679 11.8781 156.944 12.1921 158.022 12.8202C159.11 13.439 159.954 14.3249 160.554 15.478C161.154 16.6311 161.454 18.0091 161.454 19.6122V19.6403C161.454 21.2528 161.154 22.6403 160.554 23.8027C159.963 24.9558 159.129 25.8417 158.051 26.4605C156.972 27.0792 155.702 27.3886 154.24 27.3886ZM154.254 24.5621C154.994 24.5621 155.637 24.3699 156.18 23.9855C156.724 23.6012 157.141 23.0434 157.432 22.3121C157.732 21.5715 157.882 20.6809 157.882 19.6403V19.6122C157.882 18.581 157.732 17.6998 157.432 16.9685C157.132 16.2373 156.705 15.6795 156.152 15.2952C155.608 14.9108 154.966 14.7186 154.226 14.7186C153.504 14.7186 152.866 14.9108 152.313 15.2952C151.769 15.6795 151.343 16.2373 151.034 16.9685C150.734 17.6998 150.584 18.581 150.584 19.6122V19.6403C150.584 20.6809 150.734 21.5715 151.034 22.3121C151.343 23.0434 151.769 23.6012 152.313 23.9855C152.866 24.3699 153.513 24.5621 154.254 24.5621ZM166.994 27.0932L162.944 12.1874H166.46L168.977 23.634H169.047L171.958 12.1874H175.305L178.23 23.634H178.3L180.817 12.1874H184.276L180.255 27.0932H176.57L173.631 16.1951H173.561L170.636 27.0932H166.994Z" fill="#353535"/>
<defs>
<clipPath id="clip0_24_51">
<rect width="33.749" height="34.1865" fill="white"/>
</clipPath>
</defs>
</svg>
