<svg width="60" height="39" viewBox="0 0 60 39" fill="none" xmlns="http://www.w3.org/2000/svg">
<path d="M52.6472 14.6612C54.8686 15.4017 56.6457 16.7345 57.9785 18.6598C59.3114 20.4369 59.9778 22.4361 59.9778 24.6575C60.1259 26.8789 59.5335 29.1003 58.2007 31.3217C57.0159 33.395 55.0907 35.1722 52.425 36.6531C48.1303 38.8745 44.3539 39.4669 41.0959 38.4302C37.8378 37.2455 35.5424 35.4683 34.2095 33.0989C33.4691 31.9141 32.8767 30.2851 32.4324 28.2118C32.1362 26.1385 31.9882 23.9911 31.9882 21.7697C32.1362 19.4002 32.4324 17.1048 32.8767 14.8834C33.321 12.662 33.9874 10.8108 34.876 9.32988C35.6164 8.29323 36.505 7.18253 37.5416 5.99778C38.4302 4.96113 39.4669 3.92447 40.6516 2.88782C41.9845 1.85117 43.4654 0.88856 45.0944 0L52.8693 0.44428C51.8327 1.62903 50.87 2.73973 49.9815 3.77638C49.241 4.66494 48.5746 5.47945 47.9822 6.21992C47.3899 6.96039 46.7975 7.62681 46.2051 8.21918C45.1685 9.25583 44.3539 10.2925 43.7616 11.3291C43.1692 12.2177 42.6509 13.1803 42.2066 14.217C41.9104 15.2536 41.9104 16.2903 42.2066 17.3269C44.1318 15.2536 46.3532 14.217 48.8708 14.217C50.0555 14.217 51.3143 14.3651 52.6472 14.6612ZM21.9919 15.7719C24.0652 16.9567 25.5461 18.5857 26.4347 20.659C27.4713 22.5842 27.8415 24.6575 27.5454 26.8789C27.2492 29.1003 26.2866 31.1736 24.6575 33.0989C23.1766 35.0241 20.9552 36.505 17.9933 37.5417C13.4024 39.0226 9.62606 38.9485 6.6642 37.3195C3.70233 35.5424 1.70307 33.395 0.66642 30.8775C0.22214 29.5446 0 27.8415 0 25.7682C0 23.6949 0.22214 21.5476 0.66642 19.3262C1.1107 17.1048 1.70307 14.9574 2.44354 12.8841C3.18401 10.8108 4.14661 9.10774 5.33136 7.7749C6.21992 6.73825 7.25657 5.77564 8.44132 4.88708C9.47797 4.14661 10.6627 3.3321 11.9956 2.44354C13.4765 1.55498 15.1055 0.740467 16.8826 0L24.6575 1.99926C23.4728 3.03591 22.3621 3.92447 21.3254 4.66494C20.4369 5.40541 19.6224 6.07183 18.8819 6.6642C18.1414 7.25657 17.401 7.84895 16.6605 8.44132C15.6238 9.32988 14.7353 10.2184 13.9948 11.107C13.2544 11.8475 12.5879 12.736 11.9956 13.7727C11.4032 14.6612 11.181 15.6238 11.3291 16.6605C12.5139 15.7719 13.6986 15.2536 14.8834 15.1055C16.2162 14.8093 17.401 14.7353 18.4376 14.8834C19.6224 15.0315 20.8071 15.3277 21.9919 15.7719Z" fill="#F2F4F7"/>
</svg>
