<svg width="23" height="21" viewBox="0 0 23 21" fill="none" xmlns="http://www.w3.org/2000/svg">
<g clip-path="url(#clip0_13_54)">
<path fill-rule="evenodd" clip-rule="evenodd" d="M16.5775 6.90726L14.0738 1.23022L11.5701 6.90726L5.89084 9.41096L11.5701 11.9147L14.0738 17.5947L16.5775 11.9147L22.2568 9.41096L16.5775 6.90726Z" fill="#565656"/>
</g>
<g clip-path="url(#clip1_13_54)">
<path fill-rule="evenodd" clip-rule="evenodd" d="M6.91083 14.3405L5.55465 11.2654L4.19848 14.3405L1.12222 15.6967L4.19848 17.0528L5.55465 20.1295L6.91083 17.0528L9.98709 15.6967L6.91083 14.3405Z" fill="#565656"/>
</g>
<g clip-path="url(#clip2_13_54)">
<path fill-rule="evenodd" clip-rule="evenodd" d="M4.27226 2.90269L3.33337 0.773804L2.39448 2.90269L0.264755 3.84158L2.39448 4.78047L3.33337 6.91047L4.27226 4.78047L6.40198 3.84158L4.27226 2.90269Z" fill="#565656"/>
</g>
<defs>
<clipPath id="clip0_13_54">
<rect width="17.7778" height="17.7778" fill="white" transform="translate(5.18518 0.5)"/>
</clipPath>
<clipPath id="clip1_13_54">
<rect width="9.62963" height="9.62963" fill="white" transform="translate(0.740742 10.8704)"/>
</clipPath>
<clipPath id="clip2_13_54">
<rect width="6.66667" height="6.66667" fill="white" transform="translate(0 0.5)"/>
</clipPath>
</defs>
</svg>
