<svg width="24" height="21" viewBox="0 0 24 21" fill="none" xmlns="http://www.w3.org/2000/svg">
<path fill-rule="evenodd" clip-rule="evenodd" d="M17.096 6.90729L14.5923 1.23026L12.0886 6.90729L6.40936 9.411L12.0886 11.9147L14.5923 17.5947L17.096 11.9147L22.7753 9.411L17.096 6.90729Z" fill="white"/>
<g clip-path="url(#clip0_2_471)">
<path fill-rule="evenodd" clip-rule="evenodd" d="M7.42936 14.3405L6.07318 11.2655L4.71701 14.3405L1.64075 15.6967L4.71701 17.0529L6.07318 20.1295L7.42936 17.0529L10.5056 15.6967L7.42936 14.3405Z" fill="white"/>
</g>
<g clip-path="url(#clip1_2_471)">
<path fill-rule="evenodd" clip-rule="evenodd" d="M4.79083 2.90269L3.85194 0.773804L2.91305 2.90269L0.783325 3.84158L2.91305 4.78047L3.85194 6.91047L4.79083 4.78047L6.92055 3.84158L4.79083 2.90269Z" fill="white"/>
</g>
<defs>
<clipPath id="clip0_2_471">
<rect width="9.62963" height="9.62963" fill="white" transform="translate(1.25928 10.8704)"/>
</clipPath>
<clipPath id="clip1_2_471">
<rect width="6.66667" height="6.66667" fill="white" transform="translate(0.518555 0.5)"/>
</clipPath>
</defs>
</svg>
