<svg width="33" height="32" viewBox="0 0 33 32" fill="none" xmlns="http://www.w3.org/2000/svg">
<g clip-path="url(#clip0_24_184)">
<path d="M16.5 0C25.3457 0 32.5 7.15429 32.5 16C32.5 24.8457 25.3457 32 16.5 32C7.65429 32 0.5 24.8457 0.5 16C0.5 7.15429 7.65429 0 16.5 0ZM13.5743 24.4343C20.66 24.4343 24.5457 18.56 24.5457 13.4629V12.96C25.3 12.4114 25.9629 11.7257 26.4657 10.9486C25.78 11.2457 25.0257 11.4514 24.2486 11.5657C25.0486 11.0857 25.6657 10.3314 25.94 9.44C25.1857 9.87429 24.3629 10.1943 23.4943 10.3771C22.7857 9.62286 21.78 9.16572 20.6829 9.16572C18.5571 9.16572 16.82 10.9029 16.82 13.0286C16.82 13.3257 16.8429 13.6229 16.9343 13.8971C13.7343 13.7371 10.8771 12.2057 8.98 9.87429C8.66 10.4457 8.45429 11.1086 8.45429 11.8171C8.45429 13.1429 9.14 14.3314 10.1686 15.0171C9.52857 15.0171 8.93429 14.8343 8.43143 14.5371V14.5829C8.43143 16.4571 9.75714 18.0114 11.5171 18.3771C11.1971 18.4686 10.8543 18.5143 10.5114 18.5143C10.26 18.5143 10.0314 18.4914 9.78 18.4457C10.26 19.9771 11.7 21.0971 13.3686 21.12C12.0429 22.1486 10.3743 22.7657 8.56857 22.7657C8.24857 22.7657 7.95143 22.7657 7.65429 22.72C9.34571 23.8171 11.38 24.4571 13.5514 24.4571" fill="white"/>
</g>
<defs>
<clipPath id="clip0_24_184">
<rect width="32" height="32" fill="white" transform="translate(0.5)"/>
</clipPath>
</defs>
</svg>
