<svg width="186" height="35" viewBox="0 0 186 35" fill="none" xmlns="http://www.w3.org/2000/svg">
<g clip-path="url(#clip0_24_192)">
<path d="M9.78998 0.175896C10.3922 0.0622628 11.0002 0.0906711 11.6024 0.0168096C19.1477 0.0168096 26.6929 -0.0115986 34.2324 0.00544632C34.2608 2.43719 34.2154 4.86326 34.2211 7.29501C34.2381 7.46546 34.1927 7.63022 34.1813 7.79499C34.1643 9.01655 34.1643 11.454 34.1643 11.454C34.1643 11.454 33.9086 11.5222 33.7779 11.5165C28.9542 11.5222 24.1305 11.5165 19.3124 11.5108C19.142 11.4937 18.9772 11.4597 18.8124 11.4653C16.3523 11.4653 13.8921 11.4483 11.4377 11.4483C11.449 15.2834 11.4547 19.1242 11.4547 22.9593C11.5115 23.0843 11.6138 23.0161 11.7161 22.9934C11.6876 22.5559 11.7786 22.1241 11.7729 21.6866C11.9149 20.681 12.0797 19.664 12.4831 18.7265C13.1535 16.9197 14.3467 15.3175 15.8466 14.113C17.0398 13.1471 18.4545 12.4767 19.9317 12.079C20.4374 11.988 20.9317 11.8574 21.4487 11.8233C21.818 11.7437 22.1987 11.8006 22.568 11.7324C22.8975 11.7153 23.2271 11.7949 23.5566 11.7721C24.5395 11.8687 25.5282 12.0335 26.4656 12.3744C27.0281 12.5846 27.602 12.7892 28.1133 13.096C28.7269 13.4085 29.3235 13.7835 29.8519 14.2266C30.3291 14.6016 30.795 14.988 31.1757 15.4652C31.8007 16.0902 32.2836 16.8345 32.7325 17.5902C32.9882 18.1242 33.2893 18.6413 33.4597 19.2208C33.6415 19.7094 33.7893 20.2037 33.8972 20.7151C33.9824 21.2548 34.0393 21.7946 34.1074 22.3343C34.1245 22.8116 34.0904 23.2889 34.1586 23.7661C34.1643 27.1808 34.1756 30.5898 34.1756 33.9988C34.0563 34.0442 33.937 34.084 33.812 34.1124C33.0109 34.1465 32.1984 34.0897 31.3916 34.1749C30.8064 34.1635 30.2212 34.2204 29.636 34.1522C28.9542 34.209 28.2553 34.1749 27.5679 34.1863C27.3179 34.1976 27.0736 34.1238 26.8236 34.1408C25.5622 34.1408 24.3009 34.1238 23.0396 34.1238C22.9998 34.0385 22.9771 33.942 22.9771 33.8454C22.9771 32.4249 22.9771 31.0045 22.9714 29.5784C22.9714 29.4307 22.9316 29.2887 22.926 29.1466C22.926 27.0899 22.926 25.0274 22.9203 22.9707C22.8521 22.9707 22.7214 22.9707 22.6589 22.9707C22.6816 23.4082 22.5964 23.8343 22.5907 24.2718C22.568 24.5786 22.4771 24.8797 22.4601 25.1922C22.3351 26.0047 22.051 26.7888 21.7612 27.5558C21.3919 28.3569 20.9828 29.1466 20.4431 29.8455C19.5681 31.0045 18.4772 32.0102 17.2159 32.7318C16.6705 33.0102 16.1364 33.317 15.5512 33.5045C14.7671 33.8056 13.9433 33.9931 13.1081 34.0613C12.8808 34.0556 12.6592 34.1408 12.4263 34.1294C11.9263 34.1124 11.4149 34.1692 10.9149 34.0669C10.5172 34.0783 10.1309 33.9647 9.73884 33.9192C7.81276 33.5158 5.98895 32.5954 4.52877 31.2773C2.94927 29.8739 1.76749 28.0387 1.1425 26.0217C0.943646 25.232 0.744788 24.4309 0.68229 23.6184C0.693653 23.3684 0.619792 23.1298 0.625473 22.8798C0.625473 22.5275 0.625473 22.1696 0.608428 21.8173C0.551612 21.5332 0.58002 21.2378 0.574338 20.948C0.568657 18.9424 0.562975 16.9368 0.557294 14.9311C0.562975 14.7437 0.500477 14.5618 0.51184 14.3743C0.517522 13.1812 0.494795 11.9937 0.506159 10.8006C0.540249 10.5506 0.568657 10.3063 0.562975 10.0506C0.659563 9.13018 0.886829 8.23248 1.18228 7.35182C1.33 6.91433 1.5459 6.51094 1.72203 6.08481C2.77882 3.97692 4.5174 2.20425 6.64234 1.15882C7.13664 0.937237 7.61959 0.687245 8.1423 0.545203C8.68774 0.414525 9.22749 0.227031 9.78998 0.175896Z" fill="#F9F9F9"/>
</g>
<path d="M54.8989 27.4448C53.4177 27.4448 52.0865 27.2058 50.9052 26.7276C49.724 26.2402 48.7162 25.5371 47.8819 24.6183C47.0475 23.6996 46.4054 22.5887 45.9554 21.2856C45.5148 19.9732 45.2945 18.5013 45.2945 16.8701V16.8561C45.2945 14.6999 45.6835 12.8484 46.4616 11.3015C47.2397 9.74533 48.3413 8.55006 49.7662 7.7157C51.2005 6.87198 52.888 6.45012 54.8286 6.45012C56.4316 6.45012 57.8378 6.73605 59.0472 7.3079C60.2565 7.87039 61.2409 8.6438 62.0002 9.62815C62.769 10.6031 63.2799 11.714 63.533 12.9609L63.5892 13.1999H59.919L59.8628 13.0452C59.4784 11.9578 58.855 11.1094 57.9925 10.5C57.1394 9.89064 56.0895 9.58596 54.8426 9.58596C53.6239 9.58596 52.5786 9.87189 51.7068 10.4437C50.8349 11.0156 50.1646 11.8453 49.6959 12.9327C49.2272 14.0108 48.9928 15.3092 48.9928 16.8279V16.842C48.9928 18.0045 49.1287 19.0497 49.4006 19.9778C49.6725 20.8966 50.0662 21.6794 50.5818 22.3262C51.1068 22.9637 51.7349 23.4559 52.4661 23.8027C53.1974 24.1402 54.0223 24.309 54.9411 24.309C55.9629 24.309 56.8629 24.1121 57.641 23.7184C58.4285 23.3246 59.0425 22.7715 59.4831 22.059C59.9331 21.3466 60.1675 20.5169 60.1862 19.57L60.2003 19.2607H55.1661V16.4342H63.7439V18.6279C63.7439 19.9966 63.5424 21.2247 63.1393 22.3122C62.7455 23.3996 62.1643 24.3277 61.3956 25.0964C60.6362 25.8558 59.7081 26.437 58.6113 26.8401C57.5238 27.2433 56.2863 27.4448 54.8989 27.4448ZM66.8095 27.0933V12.1874H70.2969V14.7608H70.3812C70.6062 13.8608 71.014 13.1577 71.6046 12.6515C72.2046 12.1359 72.9358 11.8781 73.7983 11.8781C74.0139 11.8781 74.2202 11.8921 74.4171 11.9203C74.6139 11.9484 74.778 11.9812 74.9092 12.0187V15.1827C74.7686 15.1264 74.567 15.0796 74.3046 15.0421C74.0514 15.0046 73.7749 14.9858 73.4749 14.9858C72.8187 14.9858 72.2515 15.1217 71.7734 15.3936C71.2953 15.6561 70.9297 16.0451 70.6765 16.5608C70.4234 17.0764 70.2969 17.7045 70.2969 18.4451V27.0933H66.8095ZM83.1496 27.3886C81.659 27.3886 80.3747 27.0745 79.2966 26.4464C78.2279 25.8183 77.4076 24.9277 76.8357 23.7746C76.2639 22.6215 75.9779 21.2575 75.9779 19.6825V19.6685C75.9779 18.1029 76.2639 16.7389 76.8357 15.5764C77.417 14.4046 78.2279 13.4952 79.2685 12.8484C80.3184 12.2015 81.5559 11.8781 82.9809 11.8781C84.3964 11.8781 85.6198 12.1921 86.6511 12.8202C87.6917 13.439 88.4885 14.3108 89.0416 15.4358C89.6041 16.5608 89.8853 17.8732 89.8853 19.3732V20.4981H77.7076V18.1638H88.212L86.5245 20.3435V18.9935C86.5245 18.0185 86.3745 17.2076 86.0745 16.5608C85.7745 15.9139 85.362 15.4311 84.8371 15.1124C84.3121 14.7842 83.7074 14.6202 83.023 14.6202C82.3293 14.6202 81.7106 14.7889 81.1669 15.1264C80.6325 15.4545 80.2106 15.9467 79.9013 16.6029C79.6013 17.2592 79.4513 18.056 79.4513 18.9935V20.3435C79.4513 21.2528 79.6013 22.0309 79.9013 22.6778C80.2106 23.3152 80.6466 23.8074 81.209 24.1543C81.7715 24.4918 82.4418 24.6605 83.2199 24.6605C83.8012 24.6605 84.3121 24.5715 84.7527 24.3933C85.1933 24.2058 85.5542 23.9668 85.8355 23.6762C86.1261 23.3856 86.3276 23.0715 86.4401 22.734L86.4683 22.6356H89.7307L89.7025 22.7903C89.5807 23.3621 89.3557 23.9246 89.0276 24.4777C88.6994 25.0214 88.2588 25.5136 87.7057 25.9542C87.1526 26.3948 86.4964 26.7464 85.737 27.0089C84.9777 27.262 84.1152 27.3886 83.1496 27.3886ZM99.1241 27.3886C97.6336 27.3886 96.3492 27.0745 95.2711 26.4464C94.2024 25.8183 93.3821 24.9277 92.8103 23.7746C92.2384 22.6215 91.9525 21.2575 91.9525 19.6825V19.6685C91.9525 18.1029 92.2384 16.7389 92.8103 15.5764C93.3915 14.4046 94.2024 13.4952 95.243 12.8484C96.293 12.2015 97.5304 11.8781 98.9554 11.8781C100.371 11.8781 101.594 12.1921 102.626 12.8202C103.666 13.439 104.463 14.3108 105.016 15.4358C105.579 16.5608 105.86 17.8732 105.86 19.3732V20.4981H93.6821V18.1638H104.186L102.499 20.3435V18.9935C102.499 18.0185 102.349 17.2076 102.049 16.5608C101.749 15.9139 101.337 15.4311 100.812 15.1124C100.287 14.7842 99.6819 14.6202 98.9976 14.6202C98.3039 14.6202 97.6851 14.7889 97.1414 15.1264C96.607 15.4545 96.1852 15.9467 95.8758 16.6029C95.5758 17.2592 95.4258 18.056 95.4258 18.9935V20.3435C95.4258 21.2528 95.5758 22.0309 95.8758 22.6778C96.1852 23.3152 96.6211 23.8074 97.1836 24.1543C97.7461 24.4918 98.4163 24.6605 99.1945 24.6605C99.7757 24.6605 100.287 24.5715 100.727 24.3933C101.168 24.2058 101.529 23.9668 101.81 23.6762C102.101 23.3856 102.302 23.0715 102.415 22.734L102.443 22.6356H105.705L105.677 22.7903C105.555 23.3621 105.33 23.9246 105.002 24.4777C104.674 25.0214 104.233 25.5136 103.68 25.9542C103.127 26.3948 102.471 26.7464 101.712 27.0089C100.952 27.262 100.09 27.3886 99.1241 27.3886ZM108.546 27.0933V12.1874H112.033V14.5218H112.118C112.502 13.7155 113.074 13.0734 113.833 12.5952C114.602 12.1171 115.549 11.8781 116.674 11.8781C118.314 11.8781 119.58 12.3749 120.47 13.3687C121.37 14.3624 121.82 15.7217 121.82 17.4467V27.0933H118.319V18.1498C118.319 17.0904 118.07 16.2748 117.574 15.703C117.077 15.1217 116.331 14.8311 115.338 14.8311C114.672 14.8311 114.091 14.9858 113.594 15.2952C113.097 15.5952 112.713 16.017 112.441 16.5608C112.169 17.0951 112.033 17.7232 112.033 18.4451V27.0933H108.546ZM125.434 27.0933V6.80167H138.371V9.85314H129.062V15.8577H137.57V18.8107H129.062V27.0933H125.434ZM141.212 27.0933V6.80167H144.713V27.0933H141.212ZM154.74 27.3886C153.277 27.3886 152.007 27.0792 150.929 26.4605C149.851 25.8324 149.012 24.9418 148.412 23.7887C147.821 22.6262 147.526 21.2434 147.526 19.6404V19.6122C147.526 18.0185 147.826 16.6451 148.426 15.492C149.026 14.3296 149.865 13.439 150.943 12.8202C152.021 12.1921 153.282 11.8781 154.726 11.8781C156.179 11.8781 157.444 12.1921 158.522 12.8202C159.61 13.439 160.454 14.3249 161.054 15.478C161.654 16.6311 161.954 18.0092 161.954 19.6122V19.6404C161.954 21.2528 161.654 22.6403 161.054 23.8027C160.463 24.9558 159.629 25.8417 158.551 26.4605C157.472 27.0792 156.202 27.3886 154.74 27.3886ZM154.754 24.5621C155.494 24.5621 156.137 24.3699 156.68 23.9855C157.224 23.6012 157.641 23.0434 157.932 22.3122C158.232 21.5715 158.382 20.6809 158.382 19.6404V19.6122C158.382 18.581 158.232 17.6998 157.932 16.9686C157.632 16.2373 157.205 15.6795 156.652 15.2952C156.108 14.9108 155.466 14.7186 154.726 14.7186C154.004 14.7186 153.366 14.9108 152.813 15.2952C152.269 15.6795 151.843 16.2373 151.534 16.9686C151.234 17.6998 151.084 18.581 151.084 19.6122V19.6404C151.084 20.6809 151.234 21.5715 151.534 22.3122C151.843 23.0434 152.269 23.6012 152.813 23.9855C153.366 24.3699 154.013 24.5621 154.754 24.5621ZM167.494 27.0933L163.444 12.1874H166.96L169.477 23.634H169.547L172.458 12.1874H175.805L178.73 23.634H178.8L181.317 12.1874H184.776L180.755 27.0933H177.07L174.131 16.1951H174.061L171.136 27.0933H167.494Z" fill="#F9F9F9"/>
<defs>
<clipPath id="clip0_24_192">
<rect width="33.749" height="34.1865" fill="white" transform="translate(0.5)"/>
</clipPath>
</defs>
</svg>
