<svg width="33" height="32" viewBox="0 0 33 32" fill="none" xmlns="http://www.w3.org/2000/svg">
<path d="M19.0648 15.7329L15.4712 14.0561C15.1576 13.9105 14.9 14.0737 14.9 14.4209V17.5793C14.9 17.9265 15.1576 18.0897 15.4712 17.9441L19.0632 16.2673C19.3784 16.1201 19.3784 15.8801 19.0648 15.7329ZM16.5 0.640137C8.01682 0.640137 1.14001 7.51694 1.14001 16.0001C1.14001 24.4833 8.01682 31.3601 16.5 31.3601C24.9832 31.3601 31.86 24.4833 31.86 16.0001C31.86 7.51694 24.9832 0.640137 16.5 0.640137ZM16.5 22.2401C8.63762 22.2401 8.50001 21.5313 8.50001 16.0001C8.50001 10.4689 8.63762 9.76014 16.5 9.76014C24.3624 9.76014 24.5 10.4689 24.5 16.0001C24.5 21.5313 24.3624 22.2401 16.5 22.2401Z" fill="white"/>
</svg>
